<svg id="Layer_1" data-name="Layer 1" xmlns="http://www.w3.org/2000/svg" xmlns:xlink="http://www.w3.org/1999/xlink" viewBox="0 0 623 603"><defs><style>.cls-1{fill:#14202a;}.cls-2{clip-path:url(#clip-path);}.cls-3{fill:none;stroke:#202b35;stroke-miterlimit:10;stroke-width:2px;}</style><clipPath id="clip-path"><rect class="cls-1" width="623" height="603"/></clipPath></defs><rect class="cls-1" width="623" height="603"/><g class="cls-2"><path class="cls-3" d="M623.5,680.83447H568.23148l53.87434-121.00366A4.50033,4.50033,0,0,0,617.99449,553.5H577.82115a6.00019,6.00019,0,0,0-5.48151,3.55975L465.0002,798.148,357.66076,557.05975A6.00019,6.00019,0,0,0,352.17924,553.5H312.00506a4.5,4.5,0,0,0-4.111,6.33032l53.87464,121.00415H241.04921l-55.109-123.7749A6,6,0,0,0,180.459,553.5H135.54052a5.99984,5.99984,0,0,0-5.48121,3.55957l-55.1075,123.7749H-.5"/><path class="cls-3" d="M623.5,479.83447H568.23148l53.87434-121.00366A4.50033,4.50033,0,0,0,617.99449,352.5H577.82115a6.00019,6.00019,0,0,0-5.48151,3.55975L465.0002,597.148,357.66076,356.05975A6.00019,6.00019,0,0,0,352.17924,352.5H312.00506a4.5,4.5,0,0,0-4.111,6.33032l53.87464,121.00415H241.04921l-55.109-123.7749A6,6,0,0,0,180.459,352.5H135.54052a5.99984,5.99984,0,0,0-5.48121,3.55957l-55.1075,123.7749H-.5"/><path class="cls-3" d="M-.5,524.83447H54.91565L.89415,646.16919A4.50036,4.50036,0,0,0,5.00543,652.5H45.17882a6.00029,6.00029,0,0,0,5.48152-3.55975l107.33944-241.0882,107.33944,241.0882A6.00029,6.00029,0,0,0,270.82073,652.5h40.17419a4.5,4.5,0,0,0,4.111-6.33032l-54.022-121.33521H381.804l55.25569,124.106A6.00013,6.00013,0,0,0,442.54106,652.5h44.9184a6,6,0,0,0,5.48121-3.55957l55.25557-124.106H623.5"/><path class="cls-3" d="M623.5,278.83447H568.23148l53.87434-121.00366A4.50033,4.50033,0,0,0,617.99449,151.5H577.82115a6.00019,6.00019,0,0,0-5.48151,3.55975L465.0002,396.148,357.66076,155.05975A6.00019,6.00019,0,0,0,352.17924,151.5H312.00506a4.5,4.5,0,0,0-4.111,6.33032l53.87464,121.00415H241.04921l-55.109-123.7749A6,6,0,0,0,180.459,151.5H135.54052a5.99984,5.99984,0,0,0-5.48121,3.55957l-55.1075,123.7749H-.5"/><path class="cls-3" d="M-.5,323.83447H54.91565L.89415,445.16919A4.50036,4.50036,0,0,0,5.00543,451.5H45.17882a6.00029,6.00029,0,0,0,5.48152-3.55975l107.33944-241.0882,107.33944,241.0882A6.00029,6.00029,0,0,0,270.82073,451.5h40.17419a4.5,4.5,0,0,0,4.111-6.33032l-54.022-121.33521H381.804l55.25569,124.106A6.00013,6.00013,0,0,0,442.54106,451.5h44.9184a6,6,0,0,0,5.48121-3.55957l55.25557-124.106H623.5"/><path class="cls-3" d="M623.5,77.83447H568.23148L622.10582-43.16919A4.50033,4.50033,0,0,0,617.99449-49.5H577.82115a6.00019,6.00019,0,0,0-5.48151,3.55975L465.0002,195.148,357.66076-45.94025A6.00019,6.00019,0,0,0,352.17924-49.5H312.00506a4.5,4.5,0,0,0-4.111,6.33032L361.76873,77.83447H241.04921l-55.109-123.7749A6,6,0,0,0,180.459-49.5H135.54052a5.99984,5.99984,0,0,0-5.48121,3.55957L74.95181,77.83447H-.5"/><path class="cls-3" d="M-.5,122.83447H54.91565L.89415,244.16919A4.50036,4.50036,0,0,0,5.00543,250.5H45.17882a6.00029,6.00029,0,0,0,5.48152-3.55975L157.99978,5.85205l107.33944,241.0882A6.00029,6.00029,0,0,0,270.82073,250.5h40.17419a4.5,4.5,0,0,0,4.111-6.33032l-54.022-121.33521H381.804l55.25569,124.106A6.00013,6.00013,0,0,0,442.54106,250.5h44.9184a6,6,0,0,0,5.48121-3.55957l55.25557-124.106H623.5"/><path class="cls-3" d="M-.5-78.16553H54.91565L.89415,43.16919A4.50036,4.50036,0,0,0,5.00543,49.5H45.17882a6.00029,6.00029,0,0,0,5.48152-3.55975l107.33944-241.0882L265.33922,45.94025A6.00029,6.00029,0,0,0,270.82073,49.5h40.17419a4.5,4.5,0,0,0,4.111-6.33032L261.0839-78.16553H381.804l55.25569,124.106A6.00013,6.00013,0,0,0,442.54106,49.5h44.9184a6,6,0,0,0,5.48121-3.55957l55.25557-124.106H623.5"/></g></svg>